<svg width="16" height="16" viewBox="0 0 16 16" fill="none" xmlns="http://www.w3.org/2000/svg">
<path d="M12.9668 1.0083C11.9668 1.0083 11.2998 1.6748 11.2998 1.6748C11.2998 1.6748 12.25 2.7998 12.25 3.7998C12.25 3.7998 11.6928 4.1848 11.583 5.1333C11.4153 6.5848 10.5212 7.44605 9.8545 8.1123C9.0045 8.96205 7.58301 10.0498 5.58301 11.0498C3.58301 12.0498 3.27491 13.1333 3.27491 13.1333C3.27491 13.1333 3.20026 13.5943 3.58301 13.8833C3.58301 13.8833 4.25001 14.25 4.91651 14.25C10.9168 14.25 15.25 9.1333 15.25 6.1333C15.25 5.3698 15.1199 4.82291 14.9214 4.43066C14.9316 4.43991 14.938 4.4458 14.938 4.4458C14.313 3.10555 12.9668 3.67505 12.9668 1.0083ZM11.1851 5.27002C10.4801 6.02002 9.59985 6.34236 8.90235 6.60986C7.78235 7.03986 6.04012 7.45762 3.80762 7.55762C1.57262 7.65762 0.850104 8.52246 0.850104 8.52246C0.850104 8.52246 0.595143 8.91252 0.827643 9.33252C0.827643 9.33252 1.28747 9.93746 1.89747 10.21C2.43747 10.45 2.98229 10.6402 3.52979 10.7827C6.18479 10.3052 10.4801 7.70002 11.1851 5.27002Z" fill="white"/>
</svg>
