<svg width="28" height="27" viewBox="0 0 28 27" fill="none" xmlns="http://www.w3.org/2000/svg">
<g id="Group">
<path id="Vector" d="M26.8333 24.5H25.6667V15.1667H23.3333V24.5H18.6667V15.1667H16.3333V24.5H11.6667V15.1667H9.33333V24.5H4.66667V15.1667H2.33333V24.5H1.16667C0.522667 24.5 0 25.0215 0 25.6667C0 26.3118 0.522667 26.8333 1.16667 26.8333H26.8333C27.4773 26.8333 28 26.3118 28 25.6667C28 25.0215 27.4773 24.5 26.8333 24.5Z" fill="white"/>
<path id="Vector_2" d="M27.3922 7.14224L14.5588 0.142238C14.21 -0.0467617 13.79 -0.0467617 13.4412 0.142238L0.607833 7.14224C0.233333 7.3464 0 7.73957 0 8.16657V11.6666C0 12.3117 0.522667 12.8332 1.16667 12.8332H26.8333C27.4773 12.8332 28 12.3117 28 11.6666V8.16657C28 7.73957 27.7667 7.3464 27.3922 7.14224ZM14 9.33324C12.7108 9.33324 11.6667 8.28907 11.6667 6.9999C11.6667 5.71074 12.7108 4.66657 14 4.66657C15.2892 4.66657 16.3333 5.71074 16.3333 6.9999C16.3333 8.28907 15.2892 9.33324 14 9.33324Z" fill="white"/>
</g>
</svg>
