<svg width="16" height="16" viewBox="0 0 16 16" fill="none" xmlns="http://www.w3.org/2000/svg">
<path d="M8.36732 9.682V10.9787C8.83932 10.8987 9.07533 10.694 9.07533 10.364C9.07533 10.0127 8.68866 9.82933 8.36732 9.682Z" fill="white"/>
<path d="M6.98199 7.20333C6.98199 7.57133 7.31466 7.736 7.65399 7.88533V6.66133C7.20599 6.72733 6.98199 6.908 6.98199 7.20333Z" fill="white"/>
<path d="M12 2L10 0L8 2L6 0L3.99999 2L1.33333 0V15.3333C1.33333 15.702 1.63199 16 1.99999 16H14C14.368 16 14.6667 15.702 14.6667 15.3333V0L12 2ZM8.36733 12.2187V13.2867H7.654V12.24C6.80666 12.2227 6.06333 12.0733 5.42466 11.792V10.4173C6.02466 10.714 6.97666 10.974 7.654 11.016V9.40133C6.46133 8.93867 5.41466 8.49 5.41466 7.20333C5.41466 6.03467 6.48666 5.48533 7.654 5.37V4.57267H8.36733V5.34867C9.16199 5.38333 9.88133 5.54333 10.5233 5.828L10.034 7.04667C9.49266 6.82467 8.93666 6.68933 8.36733 6.64067V8.17733C9.63266 8.664 10.6433 9.10733 10.6433 10.2867C10.6433 11.53 9.61066 12.1047 8.36733 12.2187Z" fill="white"/>
</svg>
