<svg width="19" height="14" viewBox="0 0 19 14" fill="none" xmlns="http://www.w3.org/2000/svg">
<path d="M9.16667 0C2.5 0 0 6.66667 0 6.66667C0 6.66667 2.5 13.3333 9.16667 13.3333C15.8333 13.3333 18.3333 6.66667 18.3333 6.66667C18.3333 6.66667 15.8333 0 9.16667 0ZM9.16667 1.66667C13.5633 1.66667 15.7872 5.22258 16.5072 6.66341C15.7863 8.09424 13.5458 11.6667 9.16667 11.6667C4.77 11.6667 2.54617 8.11076 1.82617 6.66992C2.54784 5.23909 4.7875 1.66667 9.16667 1.66667ZM9.16667 3.33333C7.32583 3.33333 5.83333 4.82583 5.83333 6.66667C5.83333 8.5075 7.32583 10 9.16667 10C11.0075 10 12.5 8.5075 12.5 6.66667C12.5 4.82583 11.0075 3.33333 9.16667 3.33333ZM9.16667 5C10.0875 5 10.8333 5.74583 10.8333 6.66667C10.8333 7.5875 10.0875 8.33333 9.16667 8.33333C8.24583 8.33333 7.5 7.5875 7.5 6.66667C7.5 5.74583 8.24583 5 9.16667 5Z" fill="#979797"/>
</svg>
