<svg width="150" height="150" viewBox="0 0 150 150" fill="none" xmlns="http://www.w3.org/2000/svg">
<circle cx="75" cy="75" r="75" fill="#E5E2FF"/>
<path d="M85.5377 68.3239C84.92 68.3239 84.3931 67.813 84.3931 67.1927V57.2307C84.3931 52.0125 80.178 47.7795 74.9818 47.7795C69.7856 47.7795 65.5704 52.0307 65.5704 57.2307V67.1927C65.5704 67.813 65.0617 68.3239 64.4258 68.3239H58.1031C57.4854 68.3239 56.9767 67.813 56.9767 67.1927V57.2307C56.9767 47.2504 65.0617 39.1312 74.9999 39.1312C84.9382 39.1312 93.0232 47.2504 93.0232 57.2307V67.1927C93.0232 67.813 92.5145 68.3239 91.8786 68.3239H85.5377Z" fill="#5655B9"/>
<path d="M74.9999 40.2624C84.3023 40.2624 91.8786 47.8708 91.8786 57.2124V67.1745H85.5559V57.2124C85.5559 51.3739 80.8321 46.6118 74.9999 46.6118C69.186 46.6118 64.444 51.3557 64.444 57.2124V67.1745H58.1213V57.2124C58.1213 47.8708 65.6794 40.2624 74.9999 40.2624ZM74.9999 38C64.444 38 55.8502 46.6301 55.8502 57.2307V67.1927C55.8502 68.4516 56.8677 69.4734 58.1213 69.4734H64.444C65.6976 69.4734 66.715 68.4516 66.715 67.1927V57.2307C66.715 52.6511 70.4214 48.9108 74.9999 48.9108C79.5602 48.9108 83.2848 52.6511 83.2848 57.2307V67.1927C83.2848 68.4516 84.3022 69.4734 85.5559 69.4734H91.8786C93.1322 69.4734 94.1497 68.4516 94.1497 67.1927V57.2307C94.1497 46.6118 85.5559 38 74.9999 38Z" fill="white"/>
<path d="M53.8881 109.887C52.3619 109.887 51.1265 108.646 51.1265 107.114V68.8165C51.1265 67.2839 52.3619 66.0432 53.8881 66.0432H96.1119C97.6381 66.0432 98.8736 67.2839 98.8736 68.8165V107.095C98.8736 108.628 97.6381 109.869 96.1119 109.869H53.8881V109.887Z" fill="#5655B9"/>
<path d="M96.1119 67.1927C97.0022 67.1927 97.7289 67.9225 97.7289 68.8348V107.114C97.7289 108.008 97.0022 108.756 96.1119 108.756H53.8881C52.9797 108.756 52.2711 108.026 52.2711 107.114V68.8165C52.2711 67.9225 52.9978 67.1745 53.8881 67.1745H96.1119V67.1927ZM96.1119 64.912H53.8881C51.7442 64.912 50 66.6636 50 68.8165V107.095C50 109.248 51.7442 111 53.8881 111H96.1119C98.2558 111 100 109.248 100 107.095V68.8165C100 66.6636 98.2558 64.912 96.1119 64.912Z" fill="white"/>
<path d="M96.112 67.1927H87.8634V97.3706C87.8634 98.2647 87.1367 98.9945 86.2283 98.9945H52.2529V107.095C52.2529 107.989 52.9797 108.738 53.8699 108.738H96.0938C96.9841 108.738 97.7108 108.008 97.7108 107.095V68.8165C97.729 67.9225 97.0022 67.1927 96.112 67.1927Z" fill="#5655B9"/>
<path d="M96.112 67.1927H93.0233V101.932C93.0233 102.844 92.2966 103.556 91.3881 103.556H52.2529V107.114C52.2529 108.008 52.9797 108.756 53.8699 108.756H96.0938C96.9841 108.756 97.7108 108.026 97.7108 107.114V68.8165C97.729 67.9225 97.0022 67.1927 96.112 67.1927Z" fill="#5655B9"/>
<path d="M73.1715 92.262C73.1715 92.0031 73.0117 91.7711 72.7699 91.6788C70.4258 90.7836 68.7747 88.5119 68.7747 85.8578C68.7747 82.4255 71.566 79.6401 74.9818 79.6401C78.4147 79.6401 81.1889 82.4244 81.1889 85.8578C81.1889 88.5119 79.5378 90.7836 77.1937 91.6788C76.9518 91.7711 76.7921 92.0031 76.7921 92.262V95.4732C76.7921 96.481 75.979 97.2938 74.9818 97.2938C73.9846 97.2938 73.1715 96.481 73.1715 95.4732V92.262Z" fill="#5655B9" stroke="white" stroke-width="1.2486" stroke-miterlimit="10" stroke-linecap="round" stroke-linejoin="round"/>
</svg>
