<svg width="48" height="16" viewBox="0 0 48 16" fill="none" xmlns="http://www.w3.org/2000/svg">
<path fill-rule="evenodd" clip-rule="evenodd" d="M10.3458 10.5244L14.0456 0V0.00169999H18.0412L12.1038 15.4751H8.10827L4.72034 2.15915C7.1139 3.45182 9.25867 6.05416 9.94277 8.44893L10.3458 10.5244ZM19.5638 0L17.2012 15.4906H20.9775L23.3387 0H19.5638ZM30.9545 6.31001C29.6349 5.62339 28.8259 5.15997 28.8259 4.45771C28.842 3.81919 29.51 3.16504 31.0016 3.16504C32.2285 3.13257 33.1302 3.43636 33.8143 3.73861L34.157 3.89977L34.6704 0.658748C33.9245 0.35496 32.7419 0.0202332 31.2811 0.0202332C27.5519 0.0202332 24.926 2.06311 24.9097 4.98487C24.8789 7.14097 26.7897 8.33742 28.2197 9.05515C29.6805 9.79142 30.1778 10.2688 30.1778 10.9229C30.1617 11.9273 28.9966 12.3907 27.9094 12.3907C26.4031 12.3907 25.594 12.152 24.3657 11.5924L23.8684 11.3537L23.3403 14.7219C24.2274 15.1374 25.8587 15.503 27.5521 15.5217C31.5152 15.5217 34.094 13.5098 34.1264 10.3959C34.1393 8.68778 33.1317 7.37947 30.9545 6.31001ZM41.4301 0.0479431H44.3517L47.3968 15.503H43.9014L43.3351 12.4171H38.9011L37.8096 15.4906H33.8465L39.4558 1.2942C39.8456 0.320791 40.5298 0.0479431 41.4301 0.0479431ZM40.0006 9.31341C40.0812 9.30561 41.5214 4.29706 41.5214 4.29706L42.6718 9.31341H40.0006Z" fill="white"/>
<path d="M8.69688 2.1091C8.42646 0.860246 7.56405 0.0179742 6.39278 0H0.897173L0.840576 0.303045C5.12753 1.55837 8.72579 5.42103 9.89313 9.05434L8.69688 2.1091Z" fill="white"/>
</svg>
