<svg width="12" height="16" viewBox="0 0 12 16" fill="none" xmlns="http://www.w3.org/2000/svg">
<path d="M6.47333 0.200016C6.3456 0.0787016 6.17616 0.0110626 6 0.0110626C5.82383 0.0110626 5.6544 0.0787016 5.52666 0.200016C5.30133 0.424683 -4.01924e-06 5.80735 -4.01924e-06 9.33335C-0.00775446 10.1234 0.142148 10.9071 0.440931 11.6386C0.739715 12.37 1.18138 13.0346 1.74008 13.5933C2.29878 14.152 2.9633 14.5936 3.69476 14.8924C4.42621 15.1912 5.20991 15.3411 6 15.3333C6.79008 15.3411 7.57378 15.1912 8.30523 14.8924C9.03669 14.5936 9.70121 14.152 10.2599 13.5933C10.8186 13.0346 11.2603 12.37 11.5591 11.6386C11.8578 10.9071 12.0077 10.1234 12 9.33335C12 5.80735 6.69866 0.424683 6.47333 0.200016ZM6.66666 12H6C5.64819 12.0059 5.2988 11.9409 4.97261 11.809C4.64643 11.677 4.35012 11.4808 4.10132 11.232C3.85252 10.9832 3.65632 10.6869 3.52438 10.3607C3.39244 10.0345 3.32747 9.68516 3.33333 9.33335V8.66668H4.66666V9.33335C4.66666 9.68697 4.80714 10.0261 5.05719 10.2762C5.30724 10.5262 5.64637 10.6667 6 10.6667H6.66666V12Z" fill="white"/>
</svg>
